<mxfile host="app.diagrams.net" agent="Mozilla/5.0 (Windows NT 10.0; Win64; x64) AppleWebKit/537.36 (KHTML, like Gecko) Chrome/134.0.0.0 Safari/537.36" version="26.2.4">
  <diagram name="PÃ¡gina-1" id="Bw-3vuzHvK8cUdGuyqDx">
    <mxGraphModel dx="5319" dy="-3929" grid="1" gridSize="10" guides="1" tooltips="1" connect="1" arrows="1" fold="1" page="1" pageScale="1" pageWidth="583" pageHeight="827" background="none" math="0" shadow="1">
      <root>
        <mxCell id="0" />
        <mxCell id="1" parent="0" />
        <mxCell id="2x62SgGYw6rRhBSeBtnu-280" style="edgeStyle=orthogonalEdgeStyle;rounded=0;orthogonalLoop=1;jettySize=auto;html=1;exitX=0.5;exitY=0.5;exitDx=0;exitDy=0;exitPerimeter=0;" parent="1" source="2x62SgGYw6rRhBSeBtnu-281" target="2x62SgGYw6rRhBSeBtnu-283" edge="1">
          <mxGeometry relative="1" as="geometry" />
        </mxCell>
        <mxCell id="2x62SgGYw6rRhBSeBtnu-281" value="Empreendedor/Utilizador" style="shape=umlActor;verticalLabelPosition=bottom;verticalAlign=top;html=1;outlineConnect=0;labelBackgroundColor=none;" parent="1" vertex="1">
          <mxGeometry x="-1560" y="6175" width="30" height="60" as="geometry" />
        </mxCell>
        <mxCell id="2x62SgGYw6rRhBSeBtnu-282" style="edgeStyle=orthogonalEdgeStyle;rounded=0;orthogonalLoop=1;jettySize=auto;html=1;exitX=1;exitY=0.5;exitDx=0;exitDy=0;strokeColor=#97D077;" parent="1" source="2x62SgGYw6rRhBSeBtnu-283" target="2x62SgGYw6rRhBSeBtnu-285" edge="1">
          <mxGeometry relative="1" as="geometry" />
        </mxCell>
        <mxCell id="2x62SgGYw6rRhBSeBtnu-283" value="Login" style="ellipse;whiteSpace=wrap;html=1;labelBackgroundColor=none;fillColor=#d5e8d4;strokeColor=#82b366;" parent="1" vertex="1">
          <mxGeometry x="-1466" y="6170" width="90" height="70" as="geometry" />
        </mxCell>
        <mxCell id="2x62SgGYw6rRhBSeBtnu-284" style="edgeStyle=orthogonalEdgeStyle;rounded=0;orthogonalLoop=1;jettySize=auto;html=1;exitX=1;exitY=0.5;exitDx=0;exitDy=0;" parent="1" source="2x62SgGYw6rRhBSeBtnu-285" target="2x62SgGYw6rRhBSeBtnu-287" edge="1">
          <mxGeometry relative="1" as="geometry" />
        </mxCell>
        <mxCell id="2x62SgGYw6rRhBSeBtnu-285" value="Acesso a conta" style="ellipse;whiteSpace=wrap;html=1;labelBackgroundColor=none;fillColor=#e1d5e7;strokeColor=#9673A6;" parent="1" vertex="1">
          <mxGeometry x="-1315" y="6170" width="90" height="70" as="geometry" />
        </mxCell>
        <mxCell id="2x62SgGYw6rRhBSeBtnu-286" style="edgeStyle=orthogonalEdgeStyle;rounded=0;orthogonalLoop=1;jettySize=auto;html=1;exitX=1;exitY=0.5;exitDx=0;exitDy=0;entryX=0;entryY=0.5;entryDx=0;entryDy=0;fillColor=#dae8fc;strokeColor=#6C8EBF;" parent="1" source="2x62SgGYw6rRhBSeBtnu-287" target="2x62SgGYw6rRhBSeBtnu-289" edge="1">
          <mxGeometry relative="1" as="geometry" />
        </mxCell>
        <mxCell id="2x62SgGYw6rRhBSeBtnu-287" value="Acesso ao perfil da empresa" style="ellipse;whiteSpace=wrap;html=1;labelBackgroundColor=none;fillColor=#dae8fc;strokeColor=#6c8ebf;" parent="1" vertex="1">
          <mxGeometry x="-1140" y="6170" width="90" height="70" as="geometry" />
        </mxCell>
        <mxCell id="2x62SgGYw6rRhBSeBtnu-288" style="edgeStyle=orthogonalEdgeStyle;rounded=0;orthogonalLoop=1;jettySize=auto;html=1;exitX=1;exitY=0.5;exitDx=0;exitDy=0;strokeColor=#6C8EBF;" parent="1" source="2x62SgGYw6rRhBSeBtnu-289" target="2x62SgGYw6rRhBSeBtnu-290" edge="1">
          <mxGeometry relative="1" as="geometry" />
        </mxCell>
        <mxCell id="2x62SgGYw6rRhBSeBtnu-289" value="Adicionar dados da empresa" style="ellipse;whiteSpace=wrap;html=1;labelBackgroundColor=none;strokeColor=#D4E1F5;" parent="1" vertex="1">
          <mxGeometry x="-976" y="6170" width="90" height="70" as="geometry" />
        </mxCell>
        <mxCell id="2x62SgGYw6rRhBSeBtnu-290" value="SGBD" style="shape=umlActor;verticalLabelPosition=bottom;verticalAlign=top;html=1;outlineConnect=0;labelBackgroundColor=none;" parent="1" vertex="1">
          <mxGeometry x="-803" y="6175" width="30" height="60" as="geometry" />
        </mxCell>
      </root>
    </mxGraphModel>
  </diagram>
</mxfile>
